<svg xmlns="http://www.w3.org/2000/svg" viewBox="0 0 64 64" fill="none">
  <rect x="22" y="8" width="20" height="6" rx="2" fill="#c9a96e"/>
  <rect x="26" y="2" width="12" height="8" rx="2" fill="#c9a96e" opacity="0.6"/>
  <path d="M18 20C18 17 22 14 32 14C42 14 46 17 46 20V52C46 56 42 60 32 60C22 60 18 56 18 52V20Z" fill="#c9a96e"/>
  <path d="M22 24C22 22 26 20 32 20C38 20 42 22 42 24V48C42 52 38 54 32 54C26 54 22 52 22 48V24Z" fill="#0e0c0b" opacity="0.3"/>
  <ellipse cx="32" cy="38" rx="6" ry="8" fill="#e0c992" opacity="0.2"/>
</svg>
